<?xml version="1.0" encoding="UTF-8" standalone="no"?>
<svg
   width="540.33167"
   height="541.67468"
   version="1.1"
   id="svg8"
   sodipodi:docname="dice-6.svg"
   inkscape:version="1.1 (c68e22c387, 2021-05-23)"
   inkscape:export-filename="C:\Users\varun\Code\imperials\ui_next\public\assets\dice\dice-6.png"
   inkscape:export-xdpi="46.02"
   inkscape:export-ydpi="46.02"
   xmlns:inkscape="http://www.inkscape.org/namespaces/inkscape"
   xmlns:sodipodi="http://sodipodi.sourceforge.net/DTD/sodipodi-0.dtd"
   xmlns="http://www.w3.org/2000/svg"
   xmlns:svg="http://www.w3.org/2000/svg">
  <defs
     id="defs12" />
  <sodipodi:namedview
     id="namedview10"
     pagecolor="#ffffff"
     bordercolor="#666666"
     borderopacity="1.0"
     inkscape:pageshadow="2"
     inkscape:pageopacity="0.0"
     inkscape:pagecheckerboard="0"
     showgrid="false"
     inkscape:zoom="1.4398564"
     inkscape:cx="270.51309"
     inkscape:cy="269.81857"
     inkscape:window-width="1920"
     inkscape:window-height="991"
     inkscape:window-x="1911"
     inkscape:window-y="-9"
     inkscape:window-maximized="1"
     inkscape:current-layer="svg8"
     fit-margin-top="0"
     fit-margin-left="0"
     fit-margin-right="0"
     fit-margin-bottom="0" />
  <path
     style="fill:#ffff00;stroke:none;stroke-width:0.695607;stop-color:#000000"
     d="M 55.21384,540.9947 C 45.043733,539.68549 33.054456,534.68236 24.77746,528.2936 13.854897,519.86281 6.3375444,508.82549 1.9145834,494.72529 L 0,488.62168 V 270.89163 53.161581 L 1.9145834,47.057972 C 5.2741794,36.347731 10.090232,27.892178 16.978934,20.609463 27.425542,9.5653401 41.061603,2.6285581 56.009568,0.75424118 c 8.020254,-1.0056549 420.292282,-1.0056549 428.312542,0 14.94796,1.87431692 28.58402,8.81109892 39.03063,19.85522182 6.88871,7.282715 11.70476,15.738268 15.06435,26.448509 l 1.91459,6.103609 V 270.89163 488.62168 l -1.91459,6.10361 c -3.64643,11.62469 -9.38397,21.14369 -17.27887,28.66694 -10.43918,9.94777 -22.82852,15.88289 -36.81611,17.63679 -7.04096,0.88286 -422.241491,0.84966 -429.10827,-0.0343 z m 63.89527,-39.14969 c 14.78944,-2.25501 27.37107,-8.37134 37.74389,-18.34849 14.54525,-13.99043 21.98429,-31.29195 21.98429,-51.13045 0,-19.94859 -7.53637,-37.34084 -22.19928,-51.23095 -26.54009,-25.14134 -68.840865,-25.39024 -95.333899,-0.56095 -10.97696,10.28761 -17.016693,20.4238 -21.135595,35.47083 -0.959758,3.50616 -1.235187,7.15111 -1.233286,16.32107 0.0021,10.13041 0.228779,12.64489 1.596562,17.7101 3.421139,12.66923 9.890876,23.61258 19.335238,32.70491 16.233122,15.62806 37.304665,22.40883 59.24208,19.06393 z m 327.45307,-0.73413 c 12.47576,-2.59474 24.06879,-8.86265 33.90247,-18.3298 9.44436,-9.09233 15.91409,-20.03568 19.33523,-32.70491 1.36778,-5.06521 1.59447,-7.57969 1.59656,-17.7101 0.003,-14.77336 -1.66811,-21.79452 -7.98835,-33.5617 -15.09945,-28.11249 -48.38303,-42.57065 -79.40138,-34.4914 -22.55081,5.87374 -41.36591,23.25158 -48.78424,45.05768 -7.51686,22.09572 -3.45845,47.61832 10.42895,65.58579 16.82913,21.77347 43.92433,31.76715 70.91076,26.15444 z M 123.01711,339.71108 c 26.15426,-5.39769 46.63459,-24.97857 53.87,-51.50416 1.38895,-5.09201 1.59027,-7.39583 1.5434,-17.66255 -0.0444,-9.73069 -0.31047,-12.74051 -1.51303,-17.11727 -7.22695,-26.30261 -27.8861,-45.98612 -53.90037,-51.35492 -8.39292,-1.73211 -20.23788,-1.73783 -28.563245,-0.0138 -32.983186,6.83024 -55.890107,35.04199 -55.890107,68.8332 0,33.60442 22.804719,61.85051 55.542847,68.79577 8.100605,1.71851 20.648445,1.72879 28.910505,0.0237 z m 326.10785,-0.63183 c 12.741,-3.42023 23.04762,-9.34002 32.20527,-18.49767 9.11802,-9.11802 14.94961,-19.24473 18.54581,-32.20527 1.24973,-4.50398 1.47912,-7.21559 1.47912,-17.48468 0,-13.35419 -0.76454,-17.54585 -5.09961,-27.95916 -6.43205,-15.45048 -21.20564,-30.22406 -36.65611,-36.65611 -8.91286,-3.71043 -14.90939,-4.96198 -25.52836,-5.32805 -7.95094,-0.27411 -10.94081,-0.0834 -16.40346,1.04607 -26.36254,5.45096 -46.99319,25.009 -54.25342,51.43272 -1.20256,4.37676 -1.46861,7.38658 -1.51303,17.11727 -0.0469,10.26672 0.15445,12.57054 1.5434,17.66255 7.18013,26.32294 27.45928,45.83296 53.54495,51.51412 8.14389,1.77365 24.34261,1.45014 32.13544,-0.64179 z M 116.74907,179.20935 c 15.66586,-1.96433 28.83993,-8.09452 39.88894,-18.56121 14.66291,-13.89011 22.19928,-31.28236 22.19928,-51.23095 0,-49.816096 -50.29907,-83.847543 -96.433009,-65.244836 -8.365904,3.373404 -15.542227,8.095525 -22.537251,14.829821 -9.444362,9.092337 -15.914099,20.035681 -19.335238,32.704917 -1.367783,5.065209 -1.594464,7.579689 -1.596562,17.710098 -0.0019,9.16996 0.273528,12.81491 1.233286,16.32107 4.118902,15.04703 10.158635,25.18322 21.135595,35.47083 11.014504,10.3228 23.07352,15.67664 41.136669,18.26344 3.584,0.51325 8.89523,0.41556 14.30829,-0.26318 z m 329.21789,-0.981 c 20.18192,-4.24541 37.83263,-17.36015 47.44113,-35.24946 6.32024,-11.76718 7.99142,-18.78834 7.98835,-33.5617 -0.002,-10.130409 -0.22878,-12.644889 -1.59656,-17.710098 -3.42114,-12.669236 -9.89087,-23.61258 -19.33523,-32.704917 -20.79647,-20.021312 -49.79088,-25.384698 -76.64226,-14.177284 -25.42307,10.611265 -42.328,36.40808 -42.328,64.592299 0,18.60843 6.64538,35.2246 19.39874,48.50482 11.86591,12.35611 25.273,18.9095 44.14927,21.58021 3.67412,0.51983 15.95051,-0.22755 20.92456,-1.27387 z"
     id="path903" />
</svg>
