<?xml version="1.0" encoding="UTF-8" standalone="no"?>
<svg
   width="540.33167"
   height="541.67468"
   version="1.1"
   id="svg8"
   sodipodi:docname="dice-3.svg"
   inkscape:version="1.1 (c68e22c387, 2021-05-23)"
   inkscape:export-filename="C:\Users\varun\Code\imperials\ui_next\public\assets\dice\dice-3.png"
   inkscape:export-xdpi="46.02"
   inkscape:export-ydpi="46.02"
   xmlns:inkscape="http://www.inkscape.org/namespaces/inkscape"
   xmlns:sodipodi="http://sodipodi.sourceforge.net/DTD/sodipodi-0.dtd"
   xmlns="http://www.w3.org/2000/svg"
   xmlns:svg="http://www.w3.org/2000/svg">
  <defs
     id="defs12" />
  <sodipodi:namedview
     id="namedview10"
     pagecolor="#ffffff"
     bordercolor="#666666"
     borderopacity="1.0"
     inkscape:pageshadow="2"
     inkscape:pageopacity="0.0"
     inkscape:pagecheckerboard="0"
     showgrid="false"
     inkscape:zoom="1.4398564"
     inkscape:cx="270.51309"
     inkscape:cy="269.81857"
     inkscape:window-width="1920"
     inkscape:window-height="991"
     inkscape:window-x="1911"
     inkscape:window-y="-9"
     inkscape:window-maximized="1"
     inkscape:current-layer="svg8"
     fit-margin-top="0"
     fit-margin-left="0"
     fit-margin-right="0"
     fit-margin-bottom="0" />
  <path
     style="fill:#ffff00;stroke:none;stroke-width:0.695607;stop-color:#000000"
     d="M 55.21384,540.9947 C 45.043733,539.68549 33.054456,534.68236 24.77746,528.2936 13.854897,519.86281 6.3375444,508.82549 1.9145834,494.72529 L 0,488.62168 V 270.89163 53.161581 L 1.9145834,47.057972 C 5.2741794,36.347731 10.090232,27.892178 16.978934,20.609463 27.425542,9.5653401 41.061603,2.6285581 56.009568,0.75424118 c 8.020254,-1.0056549 420.292282,-1.0056549 428.312542,0 14.94796,1.87431692 28.58402,8.81109892 39.03063,19.85522182 6.88871,7.282715 11.70476,15.738268 15.06435,26.448509 l 1.91459,6.103609 V 270.89163 488.62168 l -1.91459,6.10361 c -3.64643,11.62469 -9.38397,21.14369 -17.27887,28.66694 -10.43918,9.94777 -22.82852,15.88289 -36.81611,17.63679 -7.04096,0.88286 -422.241491,0.84966 -429.10827,-0.0343 z m 63.89527,-39.14969 c 14.78944,-2.25501 27.37107,-8.37134 37.74389,-18.34849 14.54525,-13.99043 21.98429,-31.29195 21.98429,-51.13045 0,-19.94859 -7.53637,-37.34084 -22.19928,-51.23095 -26.54009,-25.14134 -68.840865,-25.39024 -95.333899,-0.56095 -10.97696,10.28761 -17.016693,20.4238 -21.135595,35.47083 -0.959758,3.50616 -1.235187,7.15111 -1.233286,16.32107 0.0021,10.13041 0.228779,12.64489 1.596562,17.7101 3.421139,12.66923 9.890876,23.61258 19.335238,32.70491 16.233122,15.62806 37.304665,22.40883 59.24208,19.06393 z M 282.84047,339.98742 c 11.03899,-2.09407 21.68365,-6.75894 29.96637,-13.13235 34.12283,-26.25691 37.0713,-76.80779 6.20282,-106.34597 -9.16655,-8.77152 -17.56849,-13.63972 -30.09195,-17.43571 -5.81136,-1.76148 -7.12913,-1.89462 -18.75187,-1.89462 -11.62274,0 -12.94051,0.13314 -18.75187,1.89462 -13.05439,3.95692 -23.06859,10.02262 -32.13059,19.46181 -19.26305,20.06484 -24.60046,48.81271 -13.99368,75.37152 7.17937,17.97679 23.75569,33.45719 42.39158,39.58892 10.78057,3.54711 24.47837,4.51789 35.15919,2.49178 z M 445.96696,178.22835 c 21.45457,-4.51311 39.29238,-18.4662 48.90256,-38.25256 5.37902,-11.07483 6.54333,-16.51241 6.54333,-30.5586 0,-13.798549 -1.13053,-19.233173 -6.26324,-30.108223 C 477.05116,40.96243 429.0521,27.299826 393.41763,50.35165 c -16.59539,10.735503 -28.05195,28.503695 -31.25024,48.466601 -1.16405,7.265729 -0.52661,20.837409 1.30275,27.736369 5.34528,20.15839 18.67109,36.75208 36.63755,45.62215 7.96912,3.93437 14.47406,5.84542 24.93471,7.32545 3.67412,0.51983 15.95051,-0.22755 20.92456,-1.27387 z"
     id="path903" />
</svg>
