<?xml version="1.0" encoding="UTF-8" standalone="no"?>
<svg
   width="540.33167"
   height="541.67468"
   version="1.1"
   id="svg10"
   sodipodi:docname="dice-2.svg"
   inkscape:version="1.1 (c68e22c387, 2021-05-23)"
   inkscape:export-filename="C:\Users\varun\Code\imperials\ui_next\public\assets\dice\dice-2.png"
   inkscape:export-xdpi="46.02"
   inkscape:export-ydpi="46.02"
   xmlns:inkscape="http://www.inkscape.org/namespaces/inkscape"
   xmlns:sodipodi="http://sodipodi.sourceforge.net/DTD/sodipodi-0.dtd"
   xmlns="http://www.w3.org/2000/svg"
   xmlns:svg="http://www.w3.org/2000/svg">
  <defs
     id="defs14" />
  <sodipodi:namedview
     id="namedview12"
     pagecolor="#ffffff"
     bordercolor="#666666"
     borderopacity="1.0"
     inkscape:pageshadow="2"
     inkscape:pageopacity="0.0"
     inkscape:pagecheckerboard="0"
     showgrid="false"
     inkscape:zoom="0.53535037"
     inkscape:cx="210.14275"
     inkscape:cy="-139.1612"
     inkscape:window-width="1920"
     inkscape:window-height="991"
     inkscape:window-x="1911"
     inkscape:window-y="-9"
     inkscape:window-maximized="1"
     inkscape:current-layer="svg10"
     fit-margin-top="0"
     fit-margin-left="0"
     fit-margin-right="0"
     fit-margin-bottom="0" />
  <path
     style="fill:#ffff00;stroke:none;stroke-width:0.696;stroke-miterlimit:4;stroke-dasharray:none;stop-color:#000000"
     d="M 55.21384,540.9947 C 45.043733,539.68549 33.054456,534.68236 24.77746,528.2936 13.854897,519.86281 6.3375444,508.82549 1.9145834,494.72529 L 0,488.62168 V 270.89163 53.161581 L 1.9145834,47.057972 C 5.2741794,36.347731 10.090232,27.892178 16.978934,20.609463 27.425542,9.5653401 41.061603,2.6285581 56.009568,0.75424118 c 8.020254,-1.0056549 420.292282,-1.0056549 428.312542,0 14.94796,1.87431692 28.58402,8.81109892 39.03063,19.85522182 6.88871,7.282715 11.70476,15.738268 15.06435,26.448509 l 1.91459,6.103609 V 270.89163 488.62168 l -1.91459,6.10361 c -3.64643,11.62469 -9.38397,21.14369 -17.27887,28.66694 -10.43918,9.94777 -22.82852,15.88289 -36.81611,17.63679 -7.04096,0.88286 -422.241491,0.84966 -429.10827,-0.0343 z m 68.39946,-39.88382 c 31.97276,-6.64978 55.22399,-35.59374 55.22399,-68.74481 0,-19.72548 -7.4452,-37.1114 -21.78946,-50.88247 -18.82016,-18.0681 -45.54106,-23.9733 -70.787366,-15.64367 -13.193295,4.35293 -25.339733,13.10926 -33.996628,24.50806 -4.444641,5.8524 -9.758841,16.84572 -11.750537,24.30798 -1.344528,5.03752 -1.575623,7.63505 -1.575623,17.7101 0,13.81201 1.134263,19.28103 6.244388,30.10822 3.913496,8.29182 7.811902,13.70133 14.645392,20.32227 11.065149,10.72098 24.332854,17.25784 39.314159,19.36967 5.972465,0.84191 17.802475,0.33174 24.471685,-1.05535 z M 445.96696,178.22835 c 21.45457,-4.51311 39.29238,-18.4662 48.90256,-38.25256 5.34695,-11.00882 6.52148,-16.49671 6.54019,-30.5586 0.0186,-13.999009 -1.1248,-19.355359 -6.5234,-30.558601 -4.0416,-8.387184 -6.79641,-12.286121 -13.41542,-18.987085 -8.94855,-9.059349 -19.91527,-15.374217 -32.4598,-18.691036 -9.16637,-2.423625 -24.43503,-2.565362 -33.53515,-0.311303 -26.95798,6.677376 -47.1221,27.534273 -52.612,54.419586 -4.90201,24.006269 2.76548,48.261479 20.58991,65.133789 11.02481,10.4359 23.99193,16.63074 39.34456,18.79623 5.59534,0.78923 17.03267,0.3003 23.16855,-0.99042 z"
     id="path886" />
</svg>
